<?xml version="1.0" standalone="no"?>
<!DOCTYPE svg PUBLIC "-//W3C//DTD SVG 20010904//EN"
 "http://www.w3.org/TR/2001/REC-SVG-20010904/DTD/svg10.dtd">
<svg version="1.0" xmlns="http://www.w3.org/2000/svg"
 width="128.000000pt" height="128.000000pt" viewBox="0 0 128.000000 128.000000"
 preserveAspectRatio="xMidYMid meet">
<metadata>
Created by potrace 1.16, written by Peter Selinger 2001-2019
</metadata>
<g transform="translate(0.000000,128.000000) scale(0.100000,-0.100000)"
fill="#000000" stroke="none">
<path d="M437 983 l-288 -3 3 -33 3 -32 483 -3 482 -2 0 -145 0 -145 -560 0
-560 0 0 -310 0 -310 565 0 565 0 0 180 0 180 75 0 75 0 0 315 0 315 -277 -2
c-153 -2 -408 -4 -566 -5z m295 -483 l59 0 -3 -32 -3 -33 -227 -3 -228 -2 0
33 c0 19 3 37 8 42 4 4 81 5 171 1 90 -3 191 -6 223 -6z m-212 -190 l0 -40
-200 0 -200 0 0 40 0 40 200 0 200 0 0 -40z m480 -5 l0 -35 -200 0 -200 0 0
35 0 35 200 0 200 0 0 -35z m-382 -122 l173 -6 -3 -31 -3 -31 -227 -3 -228 -2
0 40 0 40 58 0 c31 0 135 -3 230 -7z"/>
</g>
</svg>
